<?xml version="1.0" encoding="UTF-8" standalone="no"?>
<!-- Created with Inkscape (http://www.inkscape.org/) -->

<svg
   xmlns:dc="http://purl.org/dc/elements/1.1/"
   xmlns:cc="http://creativecommons.org/ns#"
   xmlns:rdf="http://www.w3.org/1999/02/22-rdf-syntax-ns#"
   xmlns:svg="http://www.w3.org/2000/svg"
   xmlns="http://www.w3.org/2000/svg"
   xmlns:sodipodi="http://sodipodi.sourceforge.net/DTD/sodipodi-0.dtd"
   xmlns:inkscape="http://www.inkscape.org/namespaces/inkscape"
   width="137.58333mm"
   height="137.58334mm"
   viewBox="0 0 137.58333 137.58334"
   version="1.1"
   id="svg8"
   inkscape:version="0.92.1 r15371"
   sodipodi:docname="donutflat.svg"
   inkscape:export-filename="C:\Users\Alexia\Documents\Digital Art\donutflat.png"
   inkscape:export-xdpi="96"
   inkscape:export-ydpi="96">
  <defs
     id="defs2">
    <inkscape:path-effect
       effect="skeletal"
       id="path-effect4568"
       is_visible="true"
       pattern="M 0,5 C 0,2.24 2.24,0 5,0 7.76,0 10,2.24 10,5 10,7.76 7.76,10 5,10 2.24,10 0,7.76 0,5 Z"
       copytype="single_stretched"
       prop_scale="0.26458333"
       scale_y_rel="false"
       spacing="0"
       normal_offset="0"
       tang_offset="0"
       prop_units="false"
       vertical_pattern="false"
       fuse_tolerance="0" />
    <inkscape:path-effect
       effect="simplify"
       id="path-effect4566"
       is_visible="true"
       steps="1"
       threshold="0.0639897"
       smooth_angles="360"
       helper_size="0"
       simplify_individual_paths="false"
       simplify_just_coalesce="false"
       simplifyindividualpaths="false"
       simplifyJustCoalesce="false" />
    <inkscape:path-effect
       effect="skeletal"
       id="path-effect4550"
       is_visible="true"
       pattern="M 0,5 C 0,2.24 2.24,0 5,0 7.76,0 10,2.24 10,5 10,7.76 7.76,10 5,10 2.24,10 0,7.76 0,5 Z"
       copytype="single_stretched"
       prop_scale="0.26458333"
       scale_y_rel="false"
       spacing="0"
       normal_offset="0"
       tang_offset="0"
       prop_units="false"
       vertical_pattern="false"
       fuse_tolerance="0" />
    <inkscape:path-effect
       effect="simplify"
       id="path-effect4548"
       is_visible="true"
       steps="1"
       threshold="0.0639897"
       smooth_angles="360"
       helper_size="0"
       simplify_individual_paths="false"
       simplify_just_coalesce="false"
       simplifyindividualpaths="false"
       simplifyJustCoalesce="false" />
    <inkscape:path-effect
       effect="bspline"
       id="path-effect4618"
       is_visible="true"
       weight="33.333333"
       steps="2"
       helper_size="0"
       apply_no_weight="true"
       apply_with_weight="true"
       only_selected="false" />
    <inkscape:path-effect
       effect="bspline"
       id="path-effect4602"
       is_visible="true"
       weight="33.333333"
       steps="2"
       helper_size="0"
       apply_no_weight="true"
       apply_with_weight="true"
       only_selected="false" />
    <inkscape:path-effect
       effect="bspline"
       id="path-effect4598"
       is_visible="true"
       weight="33.333333"
       steps="2"
       helper_size="0"
       apply_no_weight="true"
       apply_with_weight="true"
       only_selected="false" />
    <inkscape:path-effect
       effect="skeletal"
       id="path-effect4594"
       is_visible="true"
       pattern="M 0,5 C 0,2.24 2.24,0 5,0 7.76,0 10,2.24 10,5 10,7.76 7.76,10 5,10 2.24,10 0,7.76 0,5 Z"
       copytype="single_stretched"
       prop_scale="0.26458333"
       scale_y_rel="false"
       spacing="0"
       normal_offset="0"
       tang_offset="0"
       prop_units="false"
       vertical_pattern="false"
       fuse_tolerance="0" />
    <inkscape:path-effect
       effect="bspline"
       id="path-effect4592"
       is_visible="true"
       weight="33.333333"
       steps="2"
       helper_size="0"
       apply_no_weight="true"
       apply_with_weight="true"
       only_selected="false" />
    <inkscape:path-effect
       effect="skeletal"
       id="path-effect4588"
       is_visible="true"
       pattern="M 0,5 C 0,2.24 2.24,0 5,0 7.76,0 10,2.24 10,5 10,7.76 7.76,10 5,10 2.24,10 0,7.76 0,5 Z"
       copytype="single_stretched"
       prop_scale="0.26458333"
       scale_y_rel="false"
       spacing="0"
       normal_offset="0"
       tang_offset="0"
       prop_units="false"
       vertical_pattern="false"
       fuse_tolerance="0" />
    <inkscape:path-effect
       effect="skeletal"
       id="path-effect4549"
       is_visible="true"
       pattern="M 0,5 C 0,2.24 2.24,0 5,0 7.76,0 10,2.24 10,5 10,7.76 7.76,10 5,10 2.24,10 0,7.76 0,5 Z"
       copytype="single_stretched"
       prop_scale="0.26458333"
       scale_y_rel="false"
       spacing="0"
       normal_offset="0"
       tang_offset="0"
       prop_units="false"
       vertical_pattern="false"
       fuse_tolerance="0" />
    <inkscape:path-effect
       effect="skeletal"
       id="path-effect4545"
       is_visible="true"
       pattern="M 0,5 C 0,2.24 2.24,0 5,0 7.76,0 10,2.24 10,5 10,7.76 7.76,10 5,10 2.24,10 0,7.76 0,5 Z"
       copytype="single_stretched"
       prop_scale="0.26458333"
       scale_y_rel="false"
       spacing="0"
       normal_offset="0"
       tang_offset="0"
       prop_units="false"
       vertical_pattern="false"
       fuse_tolerance="0" />
    <inkscape:path-effect
       effect="skeletal"
       id="path-effect4537"
       is_visible="true"
       pattern="m 0,24.510676 c 0,-2.76 2.24,-5 5,-5 2.76,0 5,2.24 5,5 0,2.76 -2.24,5 -5,5 -2.76,0 -5,-2.24 -5,-5 z"
       copytype="single_stretched"
       prop_scale="0.26458333"
       scale_y_rel="false"
       spacing="0"
       normal_offset="0"
       tang_offset="0"
       prop_units="false"
       vertical_pattern="false"
       fuse_tolerance="0" />
    <inkscape:path-effect
       effect="skeletal"
       id="path-effect4533"
       is_visible="true"
       pattern="M 0,5 C 0,2.24 2.24,0 5,0 7.76,0 10,2.24 10,5 10,7.76 7.76,10 5,10 2.24,10 0,7.76 0,5 Z"
       copytype="single_stretched"
       prop_scale="0.26458333"
       scale_y_rel="false"
       spacing="0"
       normal_offset="0"
       tang_offset="0"
       prop_units="false"
       vertical_pattern="false"
       fuse_tolerance="0" />
    <inkscape:path-effect
       effect="simplify"
       id="path-effect4531"
       is_visible="true"
       steps="1"
       threshold="0.0639897"
       smooth_angles="360"
       helper_size="0"
       simplify_individual_paths="false"
       simplify_just_coalesce="false"
       simplifyindividualpaths="false"
       simplifyJustCoalesce="false" />
    <inkscape:path-effect
       effect="simplify"
       id="path-effect4527"
       is_visible="true"
       steps="1"
       threshold="0.0639897"
       smooth_angles="360"
       helper_size="0"
       simplify_individual_paths="false"
       simplify_just_coalesce="false"
       simplifyindividualpaths="false"
       simplifyJustCoalesce="false" />
    <inkscape:path-effect
       effect="simplify"
       id="path-effect4523"
       is_visible="true"
       steps="1"
       threshold="0.0639897"
       smooth_angles="360"
       helper_size="0"
       simplify_individual_paths="false"
       simplify_just_coalesce="false"
       simplifyindividualpaths="false"
       simplifyJustCoalesce="false" />
    <inkscape:path-effect
       effect="skeletal"
       id="path-effect4519"
       is_visible="true"
       pattern="M 0,5 C 0,2.24 2.24,0 5,0 7.76,0 10,2.24 10,5 10,7.76 7.76,10 5,10 2.24,10 0,7.76 0,5 Z"
       copytype="single_stretched"
       prop_scale="0.26458333"
       scale_y_rel="false"
       spacing="0"
       normal_offset="0"
       tang_offset="0"
       prop_units="false"
       vertical_pattern="false"
       fuse_tolerance="0" />
    <inkscape:path-effect
       effect="simplify"
       id="path-effect4517"
       is_visible="true"
       steps="1"
       threshold="0.0639897"
       smooth_angles="360"
       helper_size="0"
       simplify_individual_paths="false"
       simplify_just_coalesce="false"
       simplifyindividualpaths="false"
       simplifyJustCoalesce="false" />
    <inkscape:path-effect
       effect="skeletal"
       id="path-effect4513"
       is_visible="true"
       pattern="M 0,5 C 0,2.24 2.24,0 5,0 7.76,0 10,2.24 10,5 10,7.76 7.76,10 5,10 2.24,10 0,7.76 0,5 Z"
       copytype="single_stretched"
       prop_scale="0.26458333"
       scale_y_rel="false"
       spacing="0"
       normal_offset="0"
       tang_offset="0"
       prop_units="false"
       vertical_pattern="false"
       fuse_tolerance="0" />
    <inkscape:path-effect
       effect="simplify"
       id="path-effect4511"
       is_visible="true"
       steps="1"
       threshold="0.0639897"
       smooth_angles="360"
       helper_size="0"
       simplify_individual_paths="false"
       simplify_just_coalesce="false"
       simplifyindividualpaths="false"
       simplifyJustCoalesce="false" />
    <inkscape:path-effect
       effect="powerstroke"
       id="path-effect4507"
       is_visible="true"
       offset_points="2,0.13229166"
       sort_points="true"
       interpolator_type="CubicBezierJohan"
       interpolator_beta="0.2"
       start_linecap_type="zerowidth"
       linejoin_type="extrp_arc"
       miter_limit="4"
       end_linecap_type="zerowidth" />
    <inkscape:path-effect
       effect="simplify"
       id="path-effect4505"
       is_visible="true"
       steps="1"
       threshold="0.0639897"
       smooth_angles="360"
       helper_size="0"
       simplify_individual_paths="false"
       simplify_just_coalesce="false"
       simplifyindividualpaths="false"
       simplifyJustCoalesce="false" />
    <inkscape:path-effect
       effect="powerstroke"
       id="path-effect4501"
       is_visible="true"
       offset_points="1,0.13229166"
       sort_points="true"
       interpolator_type="CubicBezierJohan"
       interpolator_beta="0.2"
       start_linecap_type="zerowidth"
       linejoin_type="extrp_arc"
       miter_limit="4"
       end_linecap_type="zerowidth" />
    <inkscape:path-effect
       effect="simplify"
       id="path-effect4499"
       is_visible="true"
       steps="1"
       threshold="0.5"
       smooth_angles="360"
       helper_size="0"
       simplify_individual_paths="false"
       simplify_just_coalesce="false"
       simplifyindividualpaths="false"
       simplifyJustCoalesce="false" />
    <inkscape:path-effect
       effect="powerstroke"
       id="path-effect4495"
       is_visible="true"
       offset_points="0,0.13229166"
       sort_points="true"
       interpolator_type="CubicBezierJohan"
       interpolator_beta="0.2"
       start_linecap_type="zerowidth"
       linejoin_type="extrp_arc"
       miter_limit="4"
       end_linecap_type="zerowidth" />
    <inkscape:path-effect
       effect="simplify"
       id="path-effect4493"
       is_visible="true"
       steps="1"
       threshold="0.5"
       smooth_angles="360"
       helper_size="0"
       simplify_individual_paths="false"
       simplify_just_coalesce="false"
       simplifyindividualpaths="false"
       simplifyJustCoalesce="false" />
    <inkscape:path-effect
       effect="skeletal"
       id="path-effect4489"
       is_visible="true"
       pattern="M 0,5 C 0,2.24 2.24,0 5,0 7.76,0 10,2.24 10,5 10,7.76 7.76,10 5,10 2.24,10 0,7.76 0,5 Z"
       copytype="single_stretched"
       prop_scale="0.26458333"
       scale_y_rel="false"
       spacing="0"
       normal_offset="0"
       tang_offset="0"
       prop_units="false"
       vertical_pattern="false"
       fuse_tolerance="0" />
    <inkscape:path-effect
       effect="simplify"
       id="path-effect4487"
       is_visible="true"
       steps="1"
       threshold="0.5"
       smooth_angles="360"
       helper_size="0"
       simplify_individual_paths="false"
       simplify_just_coalesce="false"
       simplifyindividualpaths="false"
       simplifyJustCoalesce="false" />
  </defs>
  <sodipodi:namedview
     id="base"
     pagecolor="#ffffff"
     bordercolor="#666666"
     borderopacity="1.0"
     inkscape:pageopacity="0.0"
     inkscape:pageshadow="2"
     inkscape:zoom="1.4"
     inkscape:cx="319.55998"
     inkscape:cy="115.96048"
     inkscape:document-units="mm"
     inkscape:current-layer="layer4"
     showgrid="true"
     showguides="true"
     objecttolerance="10000"
     inkscape:window-width="1366"
     inkscape:window-height="715"
     inkscape:window-x="-8"
     inkscape:window-y="-8"
     inkscape:window-maximized="1"
     inkscape:object-paths="true"
     units="mm"
     fit-margin-top="0"
     fit-margin-left="0"
     fit-margin-right="0"
     fit-margin-bottom="0">
    <inkscape:grid
       type="xygrid"
       id="grid4559"
       originx="-95.249999"
       originy="-248.70833" />
  </sodipodi:namedview>
  <metadata
     id="metadata5">
    <rdf:RDF>
      <cc:Work
         rdf:about="">
        <dc:format>image/svg+xml</dc:format>
        <dc:type
           rdf:resource="http://purl.org/dc/dcmitype/StillImage" />
        <dc:title />
      </cc:Work>
    </rdf:RDF>
  </metadata>
  <g
     inkscape:groupmode="layer"
     id="layer3"
     inkscape:label="Background"
     transform="translate(-25.356318,-27.106907)"
     sodipodi:insensitive="true">
    <rect
       style="fill:#ac83ff;fill-opacity:1;stroke:none;stroke-width:1.18181825;stroke-linecap:round;stroke-linejoin:bevel;stroke-miterlimit:4;stroke-dasharray:none;stroke-opacity:1;paint-order:stroke fill markers"
       id="rect4809"
       width="137.58333"
       height="137.58334"
       x="25.356318"
       y="27.106907" />
  </g>
  <g
     inkscape:label="Donut body"
     inkscape:groupmode="layer"
     id="layer1"
     style="display:inline"
     transform="translate(-95.250001,89.291693)"
     sodipodi:insensitive="true">
    <circle
       style="fill:#c48800;fill-opacity:1;stroke:#000000;stroke-width:2.4000001;stroke-linecap:round;stroke-linejoin:bevel;stroke-miterlimit:4;stroke-dasharray:none;stroke-opacity:1;paint-order:stroke fill markers"
       id="path4555"
       cx="164.46959"
       cy="-17.90284"
       r="29.399649" />
    <circle
       style="fill:#ffffff;fill-opacity:1;stroke:#000000;stroke-width:2.03868628;stroke-linecap:round;stroke-linejoin:bevel;stroke-miterlimit:4;stroke-dasharray:none;stroke-opacity:1;paint-order:stroke fill markers"
       id="path4557"
       cx="164.502"
       cy="-17.713844"
       r="11.776867" />
    <path
       style="fill:#ff5e85;fill-opacity:1;stroke:#000000;stroke-width:1.5;stroke-linecap:butt;stroke-linejoin:miter;stroke-miterlimit:4;stroke-dasharray:none;stroke-opacity:1;paint-order:markers fill stroke"
       d="m 179.0573,-4.5449741 c 0.0695,-0.023533 0.14037,-0.047558 0.18196,-0.069787 0.0416,-0.022229 0.0564,-0.04343 0.91883,0.1969525 0.86244,0.2403825 2.54913,0.7356968 3.37635,0.9786206 0.82723,0.2429238 0.82723,0.2429238 1.94881,-1.3272842 1.12158,-1.570208 3.28816,-4.6034207 3.94955,-7.4699148 0.66138,-2.866494 -0.22041,-5.511853 -0.88192,-8.378489 -0.66151,-2.866636 -1.10243,-5.953087 -2.20477,-7.716869 -1.10234,-1.763783 -2.8662,-2.204749 -5.07117,-4.189172 -2.20498,-1.984423 -4.85079,-5.512172 -6.61454,-6.835206 -1.76375,-1.323035 -2.64569,-0.441094 -5.51201,1.4e-5 -2.86632,0.441107 -7.71798,0.441111 -11.46581,1.63e-4 -3.74784,-0.440947 -6.30165,-1.292222 -9.03948,0.304679 -2.73783,1.5969 -5.21583,5.313894 -6.12317,8.489237 -0.90735,3.175343 -0.0507,5.317032 -0.27114,7.301477 -0.22045,1.984445 -1.54291,3.747725 -1.98409,6.394065 -0.44118,2.64634 -0.0366,5.8826 0.44068,8.5079603 0.47732,2.62536 0.88193,3.8391991 2.42538,5.6031806 1.54344,1.76398143 4.18927,3.9688377 5.97823,5.3430196 1.78896,1.3741818 2.72098,1.9176611 4.62605,2.3409802 1.90507,0.4233192 4.77894,0.7260693 6.3486,0.9813608 1.56967,0.2552915 1.82637,0.4616686 2.22219,0.6210853 0.39583,0.1594168 0.92488,0.2704381 1.46447,0.383672"
       id="path4596"
       inkscape:connector-curvature="0"
       inkscape:path-effect="#path-effect4598"
       inkscape:original-d="m 179.0573,-4.5449741 c 0.0694,-0.0237 0.14032,-0.0477 0.20867,-0.0707 0.0149,-0.0213 0.0297,-0.0425 0.0446,-0.0639 1.71005,0.5018398 3.39674,0.9971498 5.0511,1.4833099 2.6e-4,-2.6e-4 2.6e-4,-2.6e-4 0,0 2.24321,-3.1403799 4.4098,-6.1735894 6.61458,-9.2603908 -0.88176,-2.64633 -1.76354,-5.29169 -2.64583,-7.93752 -0.44075,-3.08738 -0.88168,-6.17383 -1.32292,-9.26042 -1.76365,-0.44124 -3.52751,-0.88221 -5.29167,-1.32292 -2.64557,-3.52805 -5.29138,-7.0558 -7.9375,-10.58333 -0.88168,0.88169 -1.76362,1.76363 -2.64583,2.64584 -4.85043,-2.6e-4 -9.70209,-2.6e-4 -14.55208,1e-5 -2.64557,-0.88222 -5.19938,-1.73349 -7.9375,-2.64585 -2.73759,4.10652 -5.21559,7.82351 -7.9375,11.90625 0.90748,2.26778 1.76415,4.40947 2.64583,6.6146 -1.32287,1.76392 -2.64533,3.5272 -3.96875,5.29167 0.44132,3.52814 0.84585,6.764401 1.32292,10.5833109 0.4776,1.43174 0.88221,2.6455798 1.32292,3.9687699 2.6461,2.20459007 5.29193,4.4094499 7.9375,6.6145699 0.93229,0.5432143 1.86431,1.0866968 2.79607,1.6304401 2.87823,0.3029167 5.7521,0.6056673 8.63393,0.909548 0.2577,0.206699 0.5144,0.4130776 0.7712,0.6200126 0.53468,0.1118833 1.06373,0.2229043 1.60326,0.3364444"
       sodipodi:nodetypes="ccccccccccccccccccccccc" />
    <path
       style="fill:#ff5e85;fill-opacity:1;stroke:#000000;stroke-width:1.5;stroke-linecap:butt;stroke-linejoin:miter;stroke-miterlimit:4;stroke-dasharray:none;stroke-opacity:1"
       d="m 162.93631,6.7426752 c 0.45665,0.091324 0.91349,0.1826871 1.47645,0.3207891 0.56296,0.1381019 1.43746,0.3796525 1.73625,0.3227479 0.2988,-0.056905 0.5207,-0.458364 1.13137,-1.2684992 0.61067,-0.8101351 1.42227,-1.7997136 3.86365,-2.6694803 2.44139,-0.8697666 7.37877,-1.813012 8.94575,-2.84048261 1.56698,-1.02747061 0.18461,-2.22000079 -0.52106,-3.10471489 -0.70567,-0.8847141 -0.73447,-1.4614243 -0.67471,-1.7611874 0.0598,-0.2997631 0.20768,-0.322521 0.35536,-0.3452419"
       id="path4600"
       inkscape:connector-curvature="0"
       inkscape:path-effect="#path-effect4602"
       inkscape:original-d="m 162.93631,6.7426752 c 0,0 0.91355,0.1823809 1.36994,0.273972 0.66956,0.1846052 1.54406,0.4261559 2.00783,0.5545941 0.13382,-0.2418817 0.35572,-0.6433417 0.57786,-1.0454525 0.99914,-1.2181859 1.81074,-2.2077626 2.59526,-3.164392 4.09818,-0.7831364 9.03556,-1.7263829 13.55155,-2.58891087 -1.38175,-1.19248989 -2.76412,-2.38501993 -4.1469,-3.57740993 -0.0285,-0.57677 -0.0573,-1.1534801 -0.0864,-1.7301701 0.1483,-0.023 0.29621,-0.0458 0.44392,-0.0683"
       sodipodi:nodetypes="ccccccccc" />
    <path
       style="fill:#ffffff;fill-opacity:1;stroke:#000000;stroke-width:0.42333314px;stroke-linecap:butt;stroke-linejoin:miter;stroke-opacity:1"
       d="m 177.32374,-31.295005 -0.84666,2.54 1.27,0.42333 0.84666,-2.54 z"
       id="path4622-1-7-8-37"
       inkscape:connector-curvature="0"
       sodipodi:nodetypes="ccccc"
       inkscape:transform-center-x="-19.087798"
       inkscape:transform-center-y="22.017113" />
  </g>
  <g
     inkscape:groupmode="layer"
     id="layer2"
     inkscape:label="Donut hole/sprinkles"
     transform="translate(-95.250001,89.291693)"
     style="display:inline"
     sodipodi:insensitive="true">
    <path
       style="fill:#df5285;fill-opacity:1;stroke:none;stroke-width:0.30878654px;stroke-linecap:butt;stroke-linejoin:miter;stroke-opacity:1;paint-order:stroke fill markers"
       d="m 156.35985,-11.574893 c 0.22047,0.881885 1.54336,3.9686175 3.22078,6.1658085 1.67742,2.197191 3.70893,3.5042866 5.61467,3.3308986 1.90573,-0.1733881 3.68537,-1.827038 5.09482,-4.2445398 1.40945,-2.4175019 2.44877,-5.5984833 2.74806,-6.7482773 0.29929,-1.149795 -0.14155,-0.268093 -1.68515,0.834617 -1.54361,1.102709 -4.18945,2.4256297 -6.6144,2.86662 -2.42496,0.4409903 -4.62992,-3e-6 -6.17366,-0.882124 -1.54374,-0.882122 -2.42559,-2.204888 -2.20512,-1.323003 z"
       id="path4616"
       inkscape:connector-curvature="0"
       inkscape:path-effect="#path-effect4618"
       inkscape:original-d="m 155.2575,-13.779595 c 1.32314,3.086451 2.64603,6.1731811 3.96875,9.2604209 2.032,1.3069701 4.06351,2.6140702 6.09487,3.92150017 1.7799,-1.65391007 3.55954,-3.30756017 5.33891,-4.96093997 1.0397,-3.18156 2.07903,-6.3625411 3.1183,-9.5439011 -0.44075,0.88177 -0.8816,1.76347 -1.32291,2.64584 -2.64605,1.322891 -5.29189,2.6458107 -7.9375,3.9687511 -2.20419,-0.44116 -4.40915,-0.8821497 -6.61458,-1.3229204 -0.88181,-1.3233697 -1.76365,-2.6461407 -2.64584,-3.9687507 z"
       sodipodi:nodetypes="ccssccccc" />
    <circle
       style="display:inline;fill:#ac83ff;fill-opacity:1;stroke:#000000;stroke-width:1.5;stroke-linecap:round;stroke-linejoin:bevel;stroke-miterlimit:4;stroke-dasharray:none;stroke-opacity:1;paint-order:markers fill stroke"
       id="path4605"
       cx="164.51122"
       cy="-17.63485"
       r="9.921875" />
    <path
       style="fill:#00accd;fill-opacity:1;stroke:#000000;stroke-width:0.42333314px;stroke-linecap:butt;stroke-linejoin:miter;stroke-opacity:1"
       d="m 146.84375,-29.442925 -0.84667,2.54 1.27001,0.42333 0.84666,-2.54 z"
       id="path4622"
       inkscape:connector-curvature="0"
       sodipodi:nodetypes="ccccc" />
    <path
       style="fill:none;stroke:#000000;stroke-width:0.26458332px;stroke-linecap:butt;stroke-linejoin:miter;stroke-opacity:1"
       d="m 83.343749,140.63125 v 0 0"
       id="path4624"
       inkscape:connector-curvature="0" />
    <path
       style="fill:#ffffff;fill-opacity:1;stroke:#000000;stroke-width:0.42333314px;stroke-linecap:butt;stroke-linejoin:miter;stroke-opacity:1"
       d="m 145.57375,-16.742925 -0.84667,2.54 1.27001,0.42333 0.84666,-2.54 z"
       id="path4622-1"
       inkscape:connector-curvature="0"
       sodipodi:nodetypes="ccccc" />
    <path
       style="fill:#e583ff;fill-opacity:1;stroke:#000000;stroke-width:0.42333314px;stroke-linecap:butt;stroke-linejoin:miter;stroke-opacity:1"
       d="m 150.44209,-24.786255 0.84666,2.54 -1.27,0.42333 -0.84667,-2.54 z"
       id="path4622-7"
       inkscape:connector-curvature="0"
       sodipodi:nodetypes="ccccc" />
    <path
       style="fill:#00accd;fill-opacity:1;stroke:#000000;stroke-width:0.42333314px;stroke-linecap:butt;stroke-linejoin:miter;stroke-opacity:1"
       d="m 157.05667,-7.0591739 0.84667,2.5399998 -1.27001,0.42333 -0.84666,-2.5399998 z"
       id="path4622-7-3"
       inkscape:connector-curvature="0"
       sodipodi:nodetypes="ccccc" />
    <path
       style="fill:#00accd;fill-opacity:1;stroke:#000000;stroke-width:0.42333314px;stroke-linecap:butt;stroke-linejoin:miter;stroke-opacity:1"
       d="m 178.22333,-22.934175 0.84667,2.54 -1.27,0.42333 -0.84667,-2.54 z"
       id="path4622-7-31"
       inkscape:connector-curvature="0"
       sodipodi:nodetypes="ccccc" />
    <path
       style="fill:#ffe785;fill-opacity:1;stroke:#000000;stroke-width:0.42333314px;stroke-linecap:butt;stroke-linejoin:miter;stroke-opacity:1"
       d="m 169.75667,-31.400845 0.84667,2.54 -1.27,0.42333 -0.84667,-2.54 z"
       id="path4622-7-2"
       inkscape:connector-curvature="0"
       sodipodi:nodetypes="ccccc" />
    <path
       style="fill:#ffffff;fill-opacity:1;stroke:#000000;stroke-width:0.42333314px;stroke-linecap:butt;stroke-linejoin:miter;stroke-opacity:1"
       d="m 151.23584,-36.692505 0.84667,2.54 -1.27,0.42333 -0.84667,-2.54 z"
       id="path4622-7-9"
       inkscape:connector-curvature="0"
       sodipodi:nodetypes="ccccc" />
    <path
       style="fill:#ffe785;fill-opacity:1;stroke:#000000;stroke-width:0.42333314px;stroke-linecap:butt;stroke-linejoin:miter;stroke-opacity:1"
       d="m 145.15042,-8.3820939 0.84667,2.54 -1.27001,0.42333 -0.84666,-2.54 z"
       id="path4622-7-5"
       inkscape:connector-curvature="0"
       sodipodi:nodetypes="ccccc" />
    <path
       style="fill:#00e285;fill-opacity:1;stroke:#000000;stroke-width:0.42333314px;stroke-linecap:butt;stroke-linejoin:miter;stroke-opacity:1"
       d="m 183.515,-9.7050143 0.84667,2.5400004 -1.27,0.42333 -0.84667,-2.5399997 z"
       id="path4622-7-4"
       inkscape:connector-curvature="0"
       sodipodi:nodetypes="ccccc"
       inkscape:transform-center-x="29.576637"
       inkscape:transform-center-y="-0.37797619" />
    <path
       style="fill:#ffe785;fill-opacity:1;stroke:#000000;stroke-width:0.42333314px;stroke-linecap:butt;stroke-linejoin:miter;stroke-opacity:1"
       d="m 170.23291,-0.86792393 0.84667,2.53999983 -1.27,0.42333 -0.84667,-2.53999986 z"
       id="path4622-7-20"
       inkscape:connector-curvature="0"
       sodipodi:nodetypes="ccccc"
       inkscape:transform-center-x="-15.308036"
       inkscape:transform-center-y="-6.5200893" />
    <path
       style="fill:#00e285;fill-opacity:1;stroke:#000000;stroke-width:0.42333314px;stroke-linecap:butt;stroke-linejoin:miter;stroke-opacity:1"
       d="m 150.01875,-10.234174 -0.84667,2.5400001 1.27001,0.42333 0.84666,-2.5400004 z"
       id="path4622-1-1"
       inkscape:connector-curvature="0"
       sodipodi:nodetypes="ccccc" />
    <path
       style="fill:#e583ff;fill-opacity:1;stroke:#000000;stroke-width:0.42333314px;stroke-linecap:butt;stroke-linejoin:miter;stroke-opacity:1"
       d="m 153.51125,-2.190844 -0.84667,2.53999996 1.27001,0.42332997 0.84666,-2.53999983 z"
       id="path4622-1-2"
       inkscape:connector-curvature="0"
       sodipodi:nodetypes="ccccc" />
    <path
       style="fill:#00e285;fill-opacity:1;stroke:#000000;stroke-width:0.42333314px;stroke-linecap:butt;stroke-linejoin:miter;stroke-opacity:1"
       d="m 163.24792,-0.97375393 -0.84667,2.53999983 1.27,0.42333 0.84667,-2.53999993 z"
       id="path4622-1-3"
       inkscape:connector-curvature="0"
       sodipodi:nodetypes="ccccc" />
    <path
       style="fill:#dee6e6;fill-opacity:1;stroke:#000000;stroke-width:0.42333314px;stroke-linecap:butt;stroke-linejoin:miter;stroke-opacity:1"
       d="m 165.89375,-6.2654239 -0.84666,2.5399998 1.27,0.4233301 0.84666,-2.5399999 z"
       id="path4622-1-7"
       inkscape:connector-curvature="0"
       sodipodi:nodetypes="ccccc" />
    <path
       style="fill:#ffe785;fill-opacity:1;stroke:#000000;stroke-width:0.42333314px;stroke-linecap:butt;stroke-linejoin:miter;stroke-opacity:1"
       d="m 176.84751,-9.4933443 0.84666,-2.5400007 -1.27,-0.42333 -0.84666,2.5400007 z"
       id="path4622-1-7-8"
       inkscape:connector-curvature="0"
       sodipodi:nodetypes="ccccc"
       inkscape:transform-center-x="19.087798"
       inkscape:transform-center-y="-22.017113" />
    <path
       style="fill:#e583ff;fill-opacity:1;stroke:#000000;stroke-width:0.42333314px;stroke-linecap:butt;stroke-linejoin:miter;stroke-opacity:1"
       d="m 157.90334,-34.946255 -0.84666,2.54 1.27,0.42333 0.84666,-2.54 z"
       id="path4622-1-7-8-3"
       inkscape:connector-curvature="0"
       sodipodi:nodetypes="ccccc"
       inkscape:transform-center-x="-19.087798"
       inkscape:transform-center-y="22.017113" />
    <path
       style="fill:#00e285;fill-opacity:1;stroke:#000000;stroke-width:0.42333314px;stroke-linecap:butt;stroke-linejoin:miter;stroke-opacity:1"
       d="m 164.51792,-33.623345 0.84667,2.54 -1.27,0.42333 -0.84667,-2.54 z"
       id="path4622-7-3-6"
       inkscape:connector-curvature="0"
       sodipodi:nodetypes="ccccc"
       inkscape:transform-center-x="-0.094493874"
       inkscape:transform-center-y="-4.5357142" />
    <path
       style="fill:#e583ff;fill-opacity:1;stroke:#000000;stroke-width:0.42333314px;stroke-linecap:butt;stroke-linejoin:miter;stroke-opacity:1"
       d="m 184.36167,-21.717095 0.84667,2.54 -1.27,0.42333 -0.84667,-2.54 z"
       id="path4622-7-3-6-4"
       inkscape:connector-curvature="0"
       sodipodi:nodetypes="ccccc"
       inkscape:transform-center-x="-0.094493874"
       inkscape:transform-center-y="-4.5357142" />
  </g>
  <g
     inkscape:groupmode="layer"
     id="layer4"
     inkscape:label="Text">
    <g
       id="g11679">
      <path
         inkscape:connector-curvature="0"
         d="m 124.74548,131.78858 c -0.0153,0.017 -0.0306,0.0341 -0.0459,0.0511 0,0 -0.36238,0.15363 -0.36238,0.15363 v 0 c 0.0141,-0.0177 0.0282,-0.0354 0.0424,-0.0532 0,0 0.36592,-0.15157 0.36592,-0.15157 z"
         id="path5049"
         style="fill:#f8ec70;fill-opacity:1;stroke:none;stroke-width:1.5;stroke-linecap:round;stroke-linejoin:bevel;stroke-miterlimit:4;stroke-dasharray:none;stroke-opacity:1;paint-order:stroke fill markers" />
      <path
         inkscape:connector-curvature="0"
         d="m 116.86738,133.98496 c 0.0389,-0.71124 0.0681,-1.42317 0.1018,-2.13479 0.0683,-1.32951 0.0904,-2.66064 0.10478,-3.99162 -0.006,-1.13634 0.0173,-2.27159 0.0848,-3.40586 0.0517,-0.54524 0.0946,-1.10512 0.27836,-1.62536 0.12995,-0.22919 0.10047,-0.21021 0.5795,-0.34711 0.0396,-0.0113 0.0566,0.0603 0.0792,0.0947 0.0349,0.053 0.0639,0.10972 0.0925,0.16638 0.10442,0.20704 0.15475,0.34113 0.24687,0.56236 0.45688,1.0932 0.82428,2.22138 1.19022,3.34747 0.40715,1.30828 0.79772,2.62156 1.20639,3.92935 0.18662,0.5702 0.35393,1.14822 0.57364,1.70696 0,0 -0.47824,0.26513 -0.47824,0.26513 v 0 c -0.19275,-0.57214 -0.35818,-1.15334 -0.53847,-1.72944 -0.39586,-1.31252 -0.77744,-2.62936 -1.19203,-3.93617 -0.37049,-1.12075 -0.74506,-2.24344 -1.2236,-3.32368 -0.0952,-0.21415 -0.14885,-0.3492 -0.25852,-0.54806 -0.0287,-0.0521 -0.0585,-0.10394 -0.0939,-0.15171 -0.0165,-0.0223 -0.0814,-0.0383 -0.0608,-0.0569 0.12702,-0.11498 0.28229,-0.19516 0.43179,-0.27886 0.0254,-0.0142 -0.0365,0.0452 -0.0548,0.0678 -0.21384,0.51106 -0.24964,1.08178 -0.31554,1.62531 -0.0793,1.13647 -0.11181,2.27445 -0.1065,3.41379 -0.0154,1.32926 -0.0387,2.65851 -0.092,3.98688 -0.0251,0.70298 -0.0461,1.40695 -0.0578,2.10999 0,0 -0.49763,0.25355 -0.49763,0.25355 z"
         id="path5079"
         style="fill:#f8ec70;fill-opacity:1;stroke:none;stroke-width:1.5;stroke-linecap:round;stroke-linejoin:bevel;stroke-miterlimit:4;stroke-dasharray:none;stroke-opacity:1;paint-order:stroke fill markers" />
      <path
         inkscape:connector-curvature="0"
         d="m 116.07334,131.96136 c 0.0717,-0.026 0.46051,-0.17808 0.4699,-0.21925 0.017,-0.0744 -0.25046,0.164 -0.20466,0.1029 0.0746,-0.0995 0.2003,-0.14761 0.29689,-0.22594 0.11471,-0.093 0.22452,-0.19196 0.33678,-0.28794 0.76093,-0.68894 1.42947,-1.47692 1.98405,-2.34107 0.1307,-0.20366 0.24791,-0.41566 0.37187,-0.62348 0.65892,-1.19562 1.11621,-2.48604 1.51189,-3.78841 0.12728,-0.42936 0.24117,-0.86286 0.33326,-1.30119 0.043,-0.20488 0.0925,-0.41269 0.0936,-0.62261 -0.14683,-0.10642 -0.16829,-0.10802 0.39098,-0.22032 0.062,-0.0125 -0.0913,0.0883 -0.1294,0.13875 -0.2274,0.30156 -0.35011,0.65429 -0.48346,1.00294 -0.26238,0.86582 -0.43057,1.78589 -0.30694,2.69194 0.0225,0.16521 0.0666,0.32676 0.1,0.49015 0.20016,0.61514 0.55905,1.21131 1.18904,1.45981 0.0875,0.0345 0.18197,0.0477 0.27296,0.0716 -0.13166,0.1989 0.61161,-0.18405 0.47476,-0.0981 -0.0821,0.0516 -0.19934,0.18356 -0.26754,0.11456 -0.0638,-0.0645 0.12331,-0.13416 0.17336,-0.20984 0.13682,-0.20687 0.16267,-0.33059 0.24415,-0.56494 0.13858,-0.56566 0.22438,-1.15565 0.11284,-1.73244 -0.0203,-0.0374 -0.057,-0.1692 -0.14257,-0.14765 -0.0367,0.009 -0.12616,0.0796 -0.0897,0.0695 0.12636,-0.0349 0.2387,-0.17952 0.36531,-0.14557 0.0773,0.0207 -0.0779,0.14035 -0.10749,0.21471 -0.0374,0.0939 -0.062,0.19239 -0.0931,0.2886 -0.11574,0.53167 -0.15097,1.10525 0.0712,1.61669 0.0337,0.0775 0.0819,0.14785 0.12284,0.22178 0.17674,0.21875 0.41512,0.38254 0.70633,0.28382 0.0678,-0.023 0.26054,-0.11705 0.19169,-0.0972 -0.0972,0.028 -0.18514,0.0813 -0.27771,0.122 0.4299,-0.43225 0.61352,-1.02928 0.80164,-1.59422 0.16451,-0.49374 0.14826,-0.62345 0.75542,-0.82685 0.0255,-0.009 0.0987,0.12839 0.14735,0.21207 0.15395,0.31975 0.30331,0.63937 0.53538,0.91065 0.058,0.0514 0.10124,0.11061 0.18567,0.11572 0.073,0.004 0.26984,-0.11252 0.2021,-0.085 -0.40644,0.1648 -0.4517,0.3043 -0.27268,0.0129 0.22121,-0.3975 0.24171,-0.85845 0.3748,-1.28415 0.36216,-0.5825 0.74885,-0.39992 1.23501,-0.31815 0.4108,0.0567 0.79348,-0.0539 1.14274,-0.2651 -0.11746,0.0577 -0.2255,0.14106 -0.35237,0.17319 -0.0441,0.0112 0.0605,-0.0683 0.0863,-0.10581 0.0235,-0.0341 0.0434,-0.0707 0.0609,-0.10823 0.005,-0.0109 0.0433,-0.099 0.0295,-0.12915 -0.003,-0.007 -0.008,0.0144 -0.0115,0.0216 0.14747,-0.0722 0.28678,-0.16423 0.44241,-0.21655 0.0362,-0.0122 -0.0495,0.0585 -0.0693,0.0911 -0.0265,0.0437 -0.0491,0.0899 -0.0691,0.137 -0.0726,0.17091 -0.10843,0.35108 -0.14458,0.53209 -0.0147,0.1288 -0.0486,0.52789 0.12905,0.58147 0.0214,0.006 0.0447,-0.002 0.067,-0.003 0.25192,-0.15809 -0.16924,0.10924 -0.32497,0.1569 -0.042,0.0129 0.0567,-0.0677 0.0793,-0.10536 0.0927,-0.1545 0.12719,-0.31944 0.15769,-0.49407 0.027,-0.23224 -0.0198,-0.4578 -0.0564,-0.6851 -0.004,-0.024 -0.0279,-0.0572 -0.009,-0.0723 0.15375,-0.12126 0.33146,-0.20856 0.4972,-0.31285 0.24547,0.19885 0.49864,0.38536 0.76415,0.55694 0.13396,0.0919 0.27648,0.15202 0.43251,0.19082 0,0 -0.45697,0.31287 -0.45697,0.31287 v 0 c -0.15447,-0.0503 -0.29908,-0.11685 -0.43412,-0.20911 -0.16371,-0.10554 -0.32434,-0.21311 -0.48055,-0.32956 -0.0134,-0.01 -0.18727,-0.14471 -0.21872,-0.16201 -0.015,-0.008 -0.0334,-0.008 -0.0501,-0.0121 0.14775,-0.0974 0.28494,-0.21311 0.44325,-0.29221 0.021,-0.0105 -0.002,0.0471 5.3e-4,0.0705 0.004,0.0444 0.0129,0.0883 0.0197,0.13242 0.0297,0.1914 0.0346,0.17384 0.0403,0.37493 0.002,0.0654 -5.2e-4,0.13081 -7.9e-4,0.19621 -0.0765,0.52408 -0.24835,0.86239 -0.85967,1.00545 -0.0278,-0.008 -0.0583,-0.009 -0.0834,-0.023 -0.20336,-0.11527 -0.15975,-0.45308 -0.14832,-0.63912 0.0283,-0.14715 0.13354,-0.69929 0.25812,-0.78494 0.17184,-0.11815 0.36041,-0.20991 0.54061,-0.31486 0.0148,0.0131 0.0361,0.0214 0.0445,0.0393 0.0202,0.043 -0.0107,0.12621 -0.0239,0.15858 -0.13406,0.32748 -0.39664,0.42482 -0.72586,0.61297 -0.36148,0.19869 -0.75049,0.29659 -1.16443,0.23424 -0.15755,-0.0259 -0.32345,-0.0702 -0.48344,-0.0773 -0.0368,-0.002 -0.13799,0.0318 -0.11021,0.008 0.83031,-0.72284 0.37754,-0.23977 0.30497,-0.16003 -0.15697,0.42172 -0.16184,0.8899 -0.37385,1.29497 -0.18898,0.36118 -0.0581,0.17619 -0.65869,0.55602 -0.16339,0.10333 -0.31012,0.0385 -0.42811,-0.093 -0.22787,-0.27753 -0.37807,-0.59919 -0.54057,-0.91731 -0.1643,-0.25839 -0.24853,-0.14422 0.29399,-0.41621 0.0359,-0.018 -0.0533,0.0612 -0.0722,0.0967 -0.0503,0.0945 -0.13317,0.34558 -0.16278,0.42987 -0.1917,0.56801 -0.36976,1.16917 -0.78318,1.62002 -0.43405,0.27873 -0.92907,0.78383 -1.43102,0.34087 -0.06,-0.053 -0.10644,-0.11967 -0.15966,-0.17951 -0.0413,-0.0773 -0.0899,-0.15117 -0.12403,-0.23191 -0.22084,-0.52201 -0.19163,-1.10249 -0.0854,-1.64658 0.0139,-0.0487 0.11705,-0.45533 0.1796,-0.51512 0.17062,-0.16307 0.37412,-0.28878 0.57267,-0.41637 0.035,-0.0225 0.0802,-0.0355 0.12143,-0.0297 0.0972,0.0137 0.12579,0.13091 0.15807,0.19674 0.10487,0.5875 0.0193,1.18511 -0.11191,1.76254 -0.0774,0.23974 -0.10163,0.36444 -0.23194,0.57958 -0.20964,0.34612 -0.40673,0.40883 -0.82702,0.63951 -0.0708,0.0389 -0.15151,0.0604 -0.2315,0.0716 -0.0854,0.012 -0.17256,-0.002 -0.25883,-0.003 -0.0918,-0.0279 -0.18724,-0.0458 -0.27534,-0.0838 -0.63455,-0.27343 -0.99619,-0.87591 -1.1965,-1.50885 -0.0332,-0.16585 -0.0771,-0.32992 -0.0996,-0.49755 -0.12237,-0.90952 0.0398,-1.83381 0.28839,-2.70748 0.10988,-0.3038 0.1624,-0.4813 0.30569,-0.7634 0.006,-0.0121 0.20144,-0.35905 0.25832,-0.39575 0.56008,-0.36139 0.45527,-0.46281 0.62236,-0.23135 -0.009,0.21792 -0.0644,0.43188 -0.11268,0.64424 -0.10056,0.44239 -0.22058,0.88022 -0.35234,1.31428 -0.40482,1.30576 -0.8653,2.60122 -1.52045,3.80529 -0.12277,0.20849 -0.23879,0.42111 -0.36832,0.62548 -0.54619,0.86181 -1.20367,1.6501 -1.95307,2.3421 -0.54429,0.47633 -1.13288,0.93355 -1.82773,1.16421 0,0 0.4471,-0.33852 0.4471,-0.33852 z"
         id="path5081"
         style="fill:#f8ec70;fill-opacity:1;stroke:none;stroke-width:1.5;stroke-linecap:round;stroke-linejoin:bevel;stroke-miterlimit:4;stroke-dasharray:none;stroke-opacity:1;paint-order:stroke fill markers" />
      <path
         inkscape:connector-curvature="0"
         d="m 124.86726,124.5091 c 0.32991,0.76104 0.35862,1.61233 0.418,2.42797 0.0693,1.06125 0.047,2.12563 0.0322,3.18825 -0.005,0.20444 -0.0212,0.40801 -0.0484,0.61055 0,0 -0.49754,0.243 -0.49754,0.243 v 0 c 0.042,-0.20291 0.0666,-0.40814 0.0758,-0.61544 0.0363,-1.06439 0.0679,-2.1316 -0.008,-3.19507 -0.0643,-0.79896 -0.0961,-1.64419 -0.45417,-2.37703 0,0 0.48165,-0.28223 0.48165,-0.28223 z"
         id="path5083"
         style="fill:#f8ec70;fill-opacity:1;stroke:none;stroke-width:1.5;stroke-linecap:round;stroke-linejoin:bevel;stroke-miterlimit:4;stroke-dasharray:none;stroke-opacity:1;paint-order:stroke fill markers" />
      <path
         inkscape:connector-curvature="0"
         d="m 126.37077,121.97543 c -0.20937,-0.086 -0.43412,-0.20753 -0.66643,-0.17475 0.15042,-0.0789 0.29399,-0.17262 0.45128,-0.23681 0.0156,-0.006 -0.002,0.0351 0.006,0.0502 0.0178,0.0352 0.0425,0.0668 0.0681,0.0968 0.11988,0.14042 0.26963,0.23263 0.42375,0.33033 0.12523,0.0654 0.28159,0.1682 0.43441,0.13913 0.0284,-0.005 0.10145,-0.055 0.0754,-0.0426 -0.46107,0.22084 -0.45241,0.37563 -0.42255,0.11985 -0.0493,-0.33665 -0.0617,-0.66024 0.0249,-0.99092 0.0704,-0.17284 0.17513,-0.33932 0.34055,-0.43609 0.56513,-0.33058 0.36516,-0.28465 0.67055,-0.33852 0.31915,0.0998 0.1561,0.5093 0.0903,0.73142 -0.18135,0.50905 -0.45569,0.97666 -0.74051,1.43334 0,0 -0.4941,0.21768 -0.4941,0.21768 v 0 c 0.28714,-0.45041 0.56171,-0.91322 0.74285,-1.41807 0.0427,-0.14355 0.2306,-0.60073 -0.0417,-0.62679 -0.22323,0.0648 -0.12082,0.043 0.28838,-0.2015 0.0344,-0.0206 -0.07,0.0395 -0.10188,0.0638 -0.11663,0.0886 -0.19911,0.20542 -0.25804,0.33859 -0.0964,0.32526 -0.0898,0.64442 -0.0252,0.97677 0.007,0.31926 0.0357,0.13174 -0.51237,0.47446 -0.15707,0.0982 -0.40186,-0.0856 -0.52996,-0.14529 -0.18957,-0.12104 -0.41162,-0.2515 -0.52434,-0.45632 -0.0163,-0.0296 -0.0572,-0.0746 -0.0315,-0.0965 0.15334,-0.13011 0.34346,-0.20929 0.51519,-0.31394 0.24012,0.003 0.4616,0.10977 0.6824,0.19381 0,0 -0.46561,0.31193 -0.46561,0.31193 z"
         id="path5085"
         style="fill:#f8ec70;fill-opacity:1;stroke:none;stroke-width:1.5;stroke-linecap:round;stroke-linejoin:bevel;stroke-miterlimit:4;stroke-dasharray:none;stroke-opacity:1;paint-order:stroke fill markers" />
    </g>
  </g>
</svg>
